<svg xmlns="http://www.w3.org/2000/svg" width="1920" height="1620" viewBox="0 0 1920 1620" role="img" aria-labelledby="title desc">
  <title id="title">ai-video-workflow detailed process map</title>
  <desc id="desc">A detailed architecture and workflow map for the ai-video-workflow project, covering user flow, official rule package modules, six production steps, review gates, change propagation, and AI IDE runtime entrypoints.</desc>
  <defs>
    <marker id="arrow-blue" viewBox="0 0 10 10" refX="8" refY="5" markerWidth="8" markerHeight="8" orient="auto-start-reverse">
      <path d="M 0 0 L 10 5 L 0 10 z" fill="#2563eb" />
    </marker>
    <marker id="arrow-orange" viewBox="0 0 10 10" refX="8" refY="5" markerWidth="8" markerHeight="8" orient="auto-start-reverse">
      <path d="M 0 0 L 10 5 L 0 10 z" fill="#f97316" />
    </marker>
    <marker id="arrow-teal" viewBox="0 0 10 10" refX="8" refY="5" markerWidth="8" markerHeight="8" orient="auto-start-reverse">
      <path d="M 0 0 L 10 5 L 0 10 z" fill="#0f766e" />
    </marker>
    <marker id="arrow-purple" viewBox="0 0 10 10" refX="8" refY="5" markerWidth="8" markerHeight="8" orient="auto-start-reverse">
      <path d="M 0 0 L 10 5 L 0 10 z" fill="#7c3aed" />
    </marker>
    <filter id="soft-shadow" x="-10%" y="-10%" width="120%" height="130%">
      <feDropShadow dx="0" dy="8" stdDeviation="8" flood-color="#0f172a" flood-opacity="0.12" />
    </filter>
    <style>
      .bg { fill: #f8fafc; }
      .panel { fill: #ffffff; stroke: #cbd5e1; stroke-width: 2; filter: url(#soft-shadow); }
      .panel-soft { fill: #f1f5f9; stroke: #cbd5e1; stroke-width: 2; }
      .title { font: 700 40px "Inter", "Noto Sans SC", "Microsoft YaHei", Arial, sans-serif; fill: #0f172a; }
      .subtitle { font: 500 20px "Inter", "Noto Sans SC", "Microsoft YaHei", Arial, sans-serif; fill: #475569; }
      .section-title { font: 700 25px "Inter", "Noto Sans SC", "Microsoft YaHei", Arial, sans-serif; fill: #0f172a; }
      .step-title { font: 700 20px "Inter", "Noto Sans SC", "Microsoft YaHei", Arial, sans-serif; fill: #0f172a; }
      .label { font: 700 16px "Inter", "Noto Sans SC", "Microsoft YaHei", Arial, sans-serif; fill: #334155; }
      .text { font: 500 15px "Inter", "Noto Sans SC", "Microsoft YaHei", Arial, sans-serif; fill: #334155; }
      .small { font: 500 14px "Inter", "Noto Sans SC", "Microsoft YaHei", Arial, sans-serif; fill: #475569; }
      .micro { font: 500 12px "Inter", "Noto Sans SC", "Microsoft YaHei", Arial, sans-serif; fill: #64748b; }
      .chip { fill: #e0f2fe; stroke: #7dd3fc; stroke-width: 1.5; }
      .chip-green { fill: #dcfce7; stroke: #86efac; stroke-width: 1.5; }
      .chip-orange { fill: #ffedd5; stroke: #fdba74; stroke-width: 1.5; }
      .chip-red { fill: #fee2e2; stroke: #fca5a5; stroke-width: 1.5; }
      .chip-purple { fill: #ede9fe; stroke: #c4b5fd; stroke-width: 1.5; }
      .node { fill: #ffffff; stroke: #94a3b8; stroke-width: 1.5; }
      .gate { fill: #fff7ed; stroke: #fb923c; stroke-width: 1.5; }
      .output { fill: #ecfdf5; stroke: #34d399; stroke-width: 1.5; }
      .line-blue { stroke: #2563eb; stroke-width: 3; fill: none; marker-end: url(#arrow-blue); }
      .line-orange { stroke: #f97316; stroke-width: 3; fill: none; marker-end: url(#arrow-orange); }
      .line-teal { stroke: #0f766e; stroke-width: 3; fill: none; marker-end: url(#arrow-teal); }
      .line-gray { stroke: #94a3b8; stroke-width: 2; fill: none; stroke-dasharray: 7 6; }
      .lane { fill: #ffffff; stroke: #cbd5e1; stroke-width: 2; }
      .lane-head-1 { fill: #dbeafe; }
      .lane-head-2 { fill: #ccfbf1; }
      .lane-head-3 { fill: #e0e7ff; }
      .lane-head-4 { fill: #fef3c7; }
      .lane-head-5 { fill: #dcfce7; }
      .lane-head-6 { fill: #fae8ff; }
    </style>
  </defs>

  <rect class="bg" x="0" y="0" width="1920" height="1620" />

  <text class="title" x="70" y="68">ai-video-workflow 详细流程图</text>
  <text class="subtitle" x="70" y="102">用户使用路径、官方规则包、六步产物、审核门槛、修改传播与 AI IDE 运行入口的关系</text>

  <rect class="panel" x="60" y="130" width="1800" height="125" rx="18" />
  <text class="section-title" x="90" y="168">用户使用项目过程</text>
  <rect class="chip" x="90" y="188" width="190" height="42" rx="10" />
  <text class="label" x="108" y="214">1. 安装与构建</text>
  <rect class="chip" x="330" y="188" width="220" height="42" rx="10" />
  <text class="label" x="348" y="214">2. init 选择 IDE/平台</text>
  <rect class="chip" x="600" y="188" width="215" height="42" rx="10" />
  <text class="label" x="618" y="214">3. 同步 IDE 规则</text>
  <rect class="chip" x="865" y="188" width="210" height="42" rx="10" />
  <text class="label" x="883" y="214">4. 推进 Step 1-6</text>
  <rect class="chip-orange" x="1125" y="188" width="220" height="42" rx="10" />
  <text class="label" x="1143" y="214">5. 自动校验/诊断</text>
  <rect class="chip-green" x="1395" y="188" width="220" height="42" rx="10" />
  <text class="label" x="1413" y="214">6. 交付 / 协作 / 回流</text>
  <path class="line-blue" d="M 280 209 H 320" />
  <path class="line-blue" d="M 550 209 H 590" />
  <path class="line-blue" d="M 815 209 H 855" />
  <path class="line-blue" d="M 1075 209 H 1115" />
  <path class="line-blue" d="M 1345 209 H 1385" />
  <text class="small" x="90" y="246">先看大字理解流程；需要开发时再看小字落位。每次上游修改都触发影响分析和一致性同步。</text>

  <rect class="panel" x="60" y="285" width="300" height="760" rx="18" />
  <text class="section-title" x="90" y="325">官方规则包与工具层</text>
  <rect class="node" x="90" y="352" width="240" height="72" rx="12" />
  <text class="step-title" x="110" y="380">官方 AI 视频规则包</text>
  <text class="small" x="110" y="405">可复用创作规则包</text>
  <rect class="node" x="90" y="452" width="240" height="84" rx="12" />
  <text class="label" x="110" y="480">审核标准与失败类型</text>
  <text class="small" x="110" y="505">每步怎么判断合格</text>
  <rect class="node" x="90" y="564" width="240" height="88" rx="12" />
  <text class="label" x="110" y="592">AI 助手执行能力</text>
  <text class="small" x="110" y="617">长文规则 + 技能入口</text>
  <text class="small" x="110" y="637">让 IDE 知道怎么做</text>
  <rect class="node" x="90" y="680" width="240" height="84" rx="12" />
  <text class="label" x="110" y="708">每步交付模板</text>
  <text class="small" x="110" y="733">规定要交什么格式</text>
  <rect class="node" x="90" y="792" width="240" height="92" rx="12" />
  <text class="label" x="110" y="820">命令行工具</text>
  <text class="small" x="110" y="845">初始化 / 同步 / 校验</text>
  <text class="small" x="110" y="865">诊断 / 新包脚手架</text>
  <rect class="gate" x="90" y="912" width="240" height="96" rx="12" />
  <text class="label" x="110" y="940">自动检查规则</text>
  <text class="small" x="110" y="965">提示词结构不跑偏</text>
  <text class="small" x="110" y="985">链接和镜像不漂移</text>

  <rect class="panel" x="1560" y="285" width="300" height="760" rx="18" />
  <text class="section-title" x="1590" y="325">AI IDE 运行入口</text>
  <rect class="node" x="1590" y="352" width="240" height="94" rx="12" />
  <text class="label" x="1610" y="380">Codex 运行入口</text>
  <text class="small" x="1610" y="405">AI 可读取的技能目录</text>
  <text class="small" x="1610" y="425">完整工作流镜像</text>
  <rect class="node" x="1590" y="478" width="240" height="78" rx="12" />
  <text class="label" x="1610" y="506">Cursor</text>
  <text class="small" x="1610" y="531">同步同一套技能规则</text>
  <rect class="node" x="1590" y="588" width="240" height="78" rx="12" />
  <text class="label" x="1610" y="616">Claude Code</text>
  <text class="small" x="1610" y="641">同步同一套技能规则</text>
  <rect class="node" x="1590" y="698" width="240" height="78" rx="12" />
  <text class="label" x="1610" y="726">Trae</text>
  <text class="small" x="1610" y="751">同步技能与规则入口</text>
  <rect class="gate" x="1590" y="810" width="240" height="108" rx="12" />
  <text class="label" x="1610" y="838">不同 IDE 同一规则</text>
  <text class="small" x="1610" y="863">母包更新后要同步</text>
  <text class="small" x="1610" y="883">入口不同，规则不变</text>
  <text class="small" x="1610" y="903">引用不能写死本机路径</text>

  <path class="line-teal" d="M 330 388 C 520 360 1380 360 1585 392" />
  <path class="line-teal" d="M 330 835 C 520 920 1380 920 1585 858" />

  <rect class="panel" x="395" y="285" width="1130" height="1115" rx="18" />
  <text class="section-title" x="425" y="325">六步创作与生产流程</text>
  <text class="small" x="425" y="350">每一步都有输入、创作动作、审核门槛、正式产物；任何上游变更都必须做下游影响分析。</text>

  <g transform="translate(425 380)">
    <rect class="lane" x="0" y="0" width="165" height="430" rx="14" />
    <rect class="lane-head-1" x="0" y="0" width="165" height="68" rx="14" />
    <text class="step-title" x="16" y="28">Step 1 策划</text>
    <text class="micro" x="16" y="52">建立故事与约束</text>
    <text class="label" x="16" y="95">输入</text>
    <text class="small" x="16" y="118">用户意图</text>
    <text class="small" x="16" y="138">题材 / 目标</text>
    <text class="label" x="16" y="175">动作</text>
    <text class="small" x="16" y="198">故事内核</text>
    <text class="small" x="16" y="218">视觉基线</text>
    <rect class="gate" x="16" y="250" width="133" height="86" rx="10" />
    <text class="label" x="30" y="276">审核</text>
    <text class="micro" x="30" y="300">不越级写设定</text>
    <text class="micro" x="30" y="318">约束明确</text>
    <text class="micro" x="30" y="382">通过审核后输出</text>
    <text class="micro" x="30" y="402">见下方产物卡片</text>
  </g>

  <g transform="translate(608 380)">
    <rect class="lane" x="0" y="0" width="165" height="430" rx="14" />
    <rect class="lane-head-2" x="0" y="0" width="165" height="68" rx="14" />
    <text class="step-title" x="16" y="28">Step 2 设定</text>
    <text class="micro" x="16" y="52">角色与场景母本</text>
    <text class="label" x="16" y="95">输入</text>
    <text class="small" x="16" y="118">Step 1 基线</text>
    <text class="label" x="16" y="175">动作</text>
    <text class="small" x="16" y="198">角色/空间锚点</text>
    <text class="small" x="16" y="218">供图片视频复用</text>
    <rect class="gate" x="16" y="250" width="133" height="86" rx="10" />
    <text class="label" x="30" y="276">审核</text>
    <text class="micro" x="30" y="300">不拆镜头</text>
    <text class="micro" x="30" y="318">不写最终 prompt</text>
    <text class="micro" x="30" y="382">通过审核后输出</text>
    <text class="micro" x="30" y="402">见下方产物卡片</text>
  </g>

  <g transform="translate(791 380)">
    <rect class="lane" x="0" y="0" width="165" height="430" rx="14" />
    <rect class="lane-head-3" x="0" y="0" width="165" height="68" rx="14" />
    <text class="step-title" x="16" y="28">Step 3 分镜</text>
    <text class="micro" x="16" y="52">一镜一卡</text>
    <text class="label" x="16" y="95">输入</text>
    <text class="small" x="16" y="118">Step 1 + 2</text>
    <text class="label" x="16" y="175">动作</text>
    <text class="small" x="16" y="198">镜头目标</text>
    <text class="small" x="16" y="218">帧级状态映射</text>
    <rect class="gate" x="16" y="250" width="133" height="86" rx="10" />
    <text class="label" x="30" y="276">审核</text>
    <text class="micro" x="30" y="300">可见事实优先</text>
    <text class="micro" x="30" y="318">不替主题辩护</text>
    <text class="micro" x="30" y="382">通过审核后输出</text>
    <text class="micro" x="30" y="402">见下方产物卡片</text>
  </g>

  <rect x="960" y="350" width="376" height="475" rx="18" fill="#fff7ed" stroke="#fb923c" stroke-width="2" stroke-dasharray="8 6" />
  <text class="label" x="1123" y="374">提示词</text>

  <g transform="translate(974 380)">
    <rect class="lane" x="0" y="0" width="165" height="430" rx="14" />
    <rect class="lane-head-4" x="0" y="0" width="165" height="68" rx="14" />
    <text class="step-title" x="16" y="28">Step 4 图片</text>
    <text class="micro" x="16" y="52">一关键帧一文件</text>
    <text class="label" x="16" y="95">输入</text>
    <text class="small" x="16" y="118">Step 2 + 3</text>
    <text class="label" x="16" y="175">动作</text>
    <text class="small" x="16" y="198">完整画面事实</text>
    <text class="small" x="16" y="218">中英双版提示词</text>
    <rect class="gate" x="16" y="250" width="133" height="86" rx="10" />
    <text class="label" x="30" y="276">审核</text>
    <text class="micro" x="30" y="300">3 个固定区块</text>
    <text class="micro" x="30" y="318">禁止同上/漂移</text>
    <text class="micro" x="30" y="382">通过审核后输出</text>
    <text class="micro" x="30" y="402">见下方产物卡片</text>
  </g>

  <g transform="translate(1157 380)">
    <rect class="lane" x="0" y="0" width="165" height="430" rx="14" />
    <rect class="lane-head-5" x="0" y="0" width="165" height="68" rx="14" />
    <text class="step-title" x="16" y="28">Step 5 视频</text>
    <text class="micro" x="16" y="52">一镜一动作链</text>
    <text class="label" x="16" y="95">输入</text>
    <text class="small" x="16" y="118">Step 3 + 4</text>
    <text class="label" x="16" y="175">动作</text>
    <text class="small" x="16" y="198">连续动作段</text>
    <text class="small" x="16" y="218">视频模型提示词</text>
    <rect class="gate" x="16" y="250" width="133" height="86" rx="10" />
    <text class="label" x="30" y="276">审核</text>
    <text class="micro" x="30" y="300">默认 15 秒内</text>
    <text class="micro" x="30" y="318">重述连续性</text>
    <text class="micro" x="30" y="382">通过审核后输出</text>
    <text class="micro" x="30" y="402">见下方产物卡片</text>
  </g>

  <g transform="translate(1340 380)">
    <rect class="lane" x="0" y="0" width="165" height="430" rx="14" />
    <rect class="lane-head-6" x="0" y="0" width="165" height="68" rx="14" />
    <text class="step-title" x="16" y="28">Step 6 执行</text>
    <text class="micro" x="16" y="52">生产总控</text>
    <text class="label" x="16" y="95">输入</text>
    <text class="small" x="16" y="118">Step 1-5 完成态</text>
    <text class="label" x="16" y="175">动作</text>
    <text class="small" x="16" y="198">任务分发</text>
    <text class="small" x="16" y="218">阻塞与缺口</text>
    <rect class="gate" x="16" y="250" width="133" height="86" rx="10" />
    <text class="label" x="30" y="276">审核</text>
    <text class="micro" x="30" y="300">可追溯到 3/4/5</text>
    <text class="micro" x="30" y="318">不重写上游</text>
    <text class="micro" x="30" y="382">通过审核后输出</text>
    <text class="micro" x="30" y="402">见下方产物卡片</text>
  </g>

  <path class="line-blue" d="M 590 650 H 603" />
  <path class="line-blue" d="M 773 650 H 786" />
  <path class="line-blue" d="M 956 650 H 969" />
  <path class="line-blue" d="M 1139 650 H 1152" />
  <path class="line-blue" d="M 1322 650 H 1335" />

  <rect class="panel-soft" x="425" y="835" width="1080" height="155" rx="18" />
  <text class="section-title" x="455" y="872">六步产物卡片</text>
  <text class="small" x="455" y="896">每个产物都由上方对应步骤通过审核后生成，文件夹落位只作为开发定位。</text>

  <path class="line-teal" d="M 508 810 L 530 918" />
  <path class="line-teal" d="M 691 810 L 705 918" />
  <path class="line-teal" d="M 874 810 L 880 918" />
  <path class="line-teal" d="M 1057 810 L 1055 918" />
  <path class="line-teal" d="M 1240 810 L 1230 918" />
  <path class="line-teal" d="M 1423 810 L 1405 918" />

  <rect class="output" x="455" y="918" width="150" height="56" rx="10" />
  <text class="micro" x="470" y="942">故事内核文档</text>
  <text class="micro" x="470" y="960">01_concept</text>
  <rect class="output" x="630" y="918" width="150" height="56" rx="10" />
  <text class="micro" x="645" y="942">设定素材/一致性锚点</text>
  <text class="micro" x="645" y="960">02_setting</text>
  <rect class="output" x="805" y="918" width="150" height="56" rx="10" />
  <text class="micro" x="820" y="942">分镜卡 / 总表</text>
  <text class="micro" x="820" y="960">03_storyboard</text>
  <rect class="output" x="980" y="918" width="150" height="56" rx="10" />
  <text class="micro" x="995" y="942">关键帧图片提示词</text>
  <text class="micro" x="995" y="960">04_image_prompts</text>
  <rect class="output" x="1155" y="918" width="150" height="56" rx="10" />
  <text class="micro" x="1170" y="942">视频动作提示词</text>
  <text class="micro" x="1170" y="960">05_video_prompts</text>
  <rect class="output" x="1330" y="918" width="150" height="56" rx="10" />
  <text class="micro" x="1345" y="942">生产执行统筹单</text>
  <text class="micro" x="1345" y="960">06_execution_plan</text>

  <rect class="panel-soft" x="425" y="1055" width="1080" height="320" rx="18" />
  <text class="section-title" x="455" y="1092">生成执行关系</text>
  <text class="small" x="455" y="1116">这张卡片只表达产物之间如何进入实际生成，不承载文件目录信息。</text>

  <rect class="chip-orange" x="455" y="1148" width="155" height="42" rx="10" />
  <text class="micro" x="475" y="1174">设定素材</text>
  <path class="line-orange" d="M 610 1169 H 650" />
  <rect class="chip-orange" x="660" y="1148" width="185" height="42" rx="10" />
  <text class="micro" x="680" y="1174">图片生成基础素材</text>
  <path class="line-orange" d="M 845 1169 H 885" />
  <rect class="chip-orange" x="895" y="1148" width="190" height="42" rx="10" />
  <text class="micro" x="915" y="1174">视频一致性素材</text>

  <rect class="chip-green" x="455" y="1225" width="145" height="42" rx="10" />
  <text class="micro" x="475" y="1251">图片提示词</text>
  <path class="line-teal" d="M 600 1246 H 635" />
  <rect class="chip-green" x="645" y="1225" width="145" height="42" rx="10" />
  <text class="micro" x="665" y="1251">生成图片</text>
  <rect class="chip-green" x="835" y="1225" width="145" height="42" rx="10" />
  <text class="micro" x="855" y="1251">视频提示词</text>
  <path d="M 790 1246 L 805 1246 L 805 1214 L 1015 1214 L 1015 1225" stroke="#0f766e" stroke-width="3" fill="none" marker-end="url(#arrow-teal)" />
  <path class="line-teal" d="M 980 1246 H 1015" />
  <rect class="chip-green" x="1025" y="1225" width="165" height="42" rx="10" />
  <text class="micro" x="1045" y="1251">AI 视频平台</text>
  <path class="line-teal" d="M 1190 1246 H 1225" />
  <rect class="chip-green" x="1235" y="1225" width="145" height="42" rx="10" />
  <text class="micro" x="1255" y="1251">视频片段</text>

  <rect class="chip-purple" x="455" y="1280" width="190" height="42" rx="10" />
  <text class="micro" x="475" y="1306">生产执行统筹单</text>
  <path d="M 645 1301 H 685" stroke="#7c3aed" stroke-width="3" fill="none" marker-end="url(#arrow-purple)" />
  <rect class="chip-purple" x="695" y="1280" width="520" height="42" rx="10" />
  <text class="micro" x="715" y="1306">统筹图片批次 / 视频批次 / 执行人 / 回传 / 样张与放行</text>

  <rect class="panel-soft" x="60" y="1435" width="1800" height="170" rx="18" />
  <text class="section-title" x="90" y="1475">修改、审核与上下文一致性传播</text>
  <rect class="chip-red" x="90" y="1500" width="190" height="70" rx="12" />
  <text class="label" x="112" y="1528">上游变更</text>
  <text class="micro" x="112" y="1551">用户修改 / 审稿退回</text>
  <rect class="chip-orange" x="360" y="1500" width="225" height="70" rx="12" />
  <text class="label" x="382" y="1528">影响分析</text>
  <text class="micro" x="382" y="1551">找出受影响步骤和产物</text>
  <rect class="chip-purple" x="675" y="1500" width="230" height="70" rx="12" />
  <text class="label" x="697" y="1528">一致性修正</text>
  <text class="micro" x="697" y="1551">事实、锚点、帧状态同步</text>
  <rect class="chip-green" x="995" y="1500" width="210" height="70" rx="12" />
  <text class="label" x="1017" y="1528">重新审核</text>
  <text class="micro" x="1017" y="1551">自动校验 + 人审</text>
  <rect class="chip" x="1295" y="1500" width="130" height="70" rx="12" />
  <text class="label" x="1322" y="1528">锁版</text>
  <text class="micro" x="1322" y="1551">交付</text>
  <path class="line-orange" d="M 280 1535 H 350" />
  <path class="line-orange" d="M 585 1535 H 665" />
  <path class="line-orange" d="M 905 1535 H 985" />
  <path class="line-orange" d="M 1205 1535 H 1285" />
  <text class="small" x="90" y="1595">传播规则：Step 1 影响 2-6；Step 2 影响 3-6；Step 3 影响 4-6；Step 4 影响 5-6；Step 5 影响 6；Step 6 只报告缺口，不偷改上游。</text>

</svg>
